{
    "asset" : {
        "generator" : "Khronos glTF Blender I/O v1.5.17",
        "version" : "2.0"
    },
    "scene" : 0,
    "scenes" : [
        {
            "name" : "Scene",
            "nodes" : [
                11,
                12,
                13
            ]
        }
    ],
    "nodes" : [
        {
            "mesh" : 0,
            "name" : "KitchenSink_KitchenSink_0"
        },
        {
            "children" : [
                0
            ],
            "name" : "KitchenSink"
        },
        {
            "mesh" : 1,
            "name" : "KitchenSinkFaucet_KitchenSink_0"
        },
        {
            "children" : [
                2
            ],
            "name" : "KitchenSinkFaucet",
            "translation" : [
                -24.13583755493164,
                2.473005771636963,
                0.0005531435599550605
            ]
        },
        {
            "mesh" : 2,
            "name" : "KitchenSinkHandleL_KitchenSink_0"
        },
        {
            "children" : [
                4
            ],
            "name" : "KitchenSinkHandleL",
            "translation" : [
                -24.138797760009766,
                2.3446731567382812,
                6.976105213165283
            ]
        },
        {
            "mesh" : 3,
            "name" : "KitchenSinkHandleR_KitchenSink_0"
        },
        {
            "children" : [
                6
            ],
            "name" : "KitchenSinkHandleR",
            "translation" : [
                -24.138797760009766,
                2.3446731567382812,
                -6.975056171417236
            ]
        },
        {
            "children" : [
                1,
                3,
                5,
                7
            ],
            "name" : "KitchenSinkPivot"
        },
        {
            "children" : [
                8
            ],
            "name" : "RootNode"
        },
        {
            "children" : [
                9
            ],
            "name" : "KitchenSink.fbx",
            "rotation" : [
                0.7071068286895752,
                0,
                0,
                0.7071068286895752
            ]
        },
        {
            "children" : [
                10
            ],
            "name" : "Sketchfab_model",
            "rotation" : [
                -0.7071068286895752,
                0,
                0,
                0.7071068286895752
            ],
            "scale" : [
                0.009999999776482582,
                0.009999999776482582,
                0.009999999776482582
            ]
        },
        {
            "name" : "Light",
            "rotation" : [
                0.16907575726509094,
                0.7558803558349609,
                -0.27217137813568115,
                0.570947527885437
            ],
            "translation" : [
                4.076245307922363,
                5.903861999511719,
                -1.0054539442062378
            ]
        },
        {
            "name" : "Camera",
            "rotation" : [
                0.483536034822464,
                0.33687159419059753,
                -0.20870360732078552,
                0.7804827094078064
            ],
            "translation" : [
                7.358891487121582,
                4.958309173583984,
                6.925790786743164
            ]
        }
    ],
    "materials" : [
        {
            "doubleSided" : true,
            "name" : "KitchenSink",
            "normalTexture" : {
                "index" : 0
            },
            "occlusionTexture" : {
                "index" : 1
            },
            "pbrMetallicRoughness" : {
                "baseColorTexture" : {
                    "index" : 2
                },
                "metallicRoughnessTexture" : {
                    "index" : 1
                }
            }
        }
    ],
    "meshes" : [
        {
            "name" : "KitchenSink_KitchenSink_0",
            "primitives" : [
                {
                    "attributes" : {
                        "POSITION" : 0,
                        "NORMAL" : 1,
                        "TEXCOORD_0" : 2,
                        "TEXCOORD_1" : 3
                    },
                    "indices" : 4,
                    "material" : 0
                }
            ]
        },
        {
            "name" : "KitchenSinkFaucet_KitchenSink_0",
            "primitives" : [
                {
                    "attributes" : {
                        "POSITION" : 5,
                        "NORMAL" : 6,
                        "TEXCOORD_0" : 7,
                        "TEXCOORD_1" : 8
                    },
                    "indices" : 9,
                    "material" : 0
                }
            ]
        },
        {
            "name" : "KitchenSinkHandleL_KitchenSink_0",
            "primitives" : [
                {
                    "attributes" : {
                        "POSITION" : 10,
                        "NORMAL" : 11,
                        "TEXCOORD_0" : 12,
                        "TEXCOORD_1" : 13
                    },
                    "indices" : 14,
                    "material" : 0
                }
            ]
        },
        {
            "name" : "KitchenSinkHandleR_KitchenSink_0",
            "primitives" : [
                {
                    "attributes" : {
                        "POSITION" : 15,
                        "NORMAL" : 16,
                        "TEXCOORD_0" : 17,
                        "TEXCOORD_1" : 18
                    },
                    "indices" : 19,
                    "material" : 0
                }
            ]
        }
    ],
    "textures" : [
        {
            "sampler" : 0,
            "source" : 0
        },
        {
            "sampler" : 0,
            "source" : 1
        },
        {
            "sampler" : 0,
            "source" : 2
        }
    ],
    "images" : [
        {
            "bufferView" : 5,
            "mimeType" : "image/png",
            "name" : "KitchenSink_normal"
        },
        {
            "bufferView" : 6,
            "mimeType" : "image/png",
            "name" : "KitchenSink_metallicRoughness"
        },
        {
            "bufferView" : 7,
            "mimeType" : "image/png",
            "name" : "KitchenSink_baseColor"
        }
    ],
    "accessors" : [
        {
            "bufferView" : 0,
            "componentType" : 5126,
            "count" : 3854,
            "max" : [
                27.484935760498047,
                2.3045480251312256,
                41.662071228027344
            ],
            "min" : [
                -29.256248474121094,
                -30.446125030517578,
                -41.66205978393555
            ],
            "type" : "VEC3"
        },
        {
            "bufferView" : 1,
            "componentType" : 5126,
            "count" : 3854,
            "type" : "VEC3"
        },
        {
            "bufferView" : 2,
            "componentType" : 5126,
            "count" : 3854,
            "type" : "VEC2"
        },
        {
            "bufferView" : 3,
            "componentType" : 5126,
            "count" : 3854,
            "type" : "VEC2"
        },
        {
            "bufferView" : 4,
            "componentType" : 5123,
            "count" : 10320,
            "type" : "SCALAR"
        },
        {
            "bufferView" : 8,
            "componentType" : 5126,
            "count" : 705,
            "max" : [
                20.96682357788086,
                30.18840217590332,
                1.927248239517212
            ],
            "min" : [
                -1.9351184368133545,
                0,
                -1.9272387027740479
            ],
            "type" : "VEC3"
        },
        {
            "bufferView" : 9,
            "componentType" : 5126,
            "count" : 705,
            "type" : "VEC3"
        },
        {
            "bufferView" : 10,
            "componentType" : 5126,
            "count" : 705,
            "type" : "VEC2"
        },
        {
            "bufferView" : 11,
            "componentType" : 5126,
            "count" : 705,
            "type" : "VEC2"
        },
        {
            "bufferView" : 12,
            "componentType" : 5123,
            "count" : 2910,
            "type" : "SCALAR"
        },
        {
            "bufferView" : 13,
            "componentType" : 5126,
            "count" : 167,
            "max" : [
                1.6963094472885132,
                3.9577372074127197,
                1.696307897567749
            ],
            "min" : [
                -1.6963138580322266,
                -0.0007681548595428467,
                -1.6963154077529907
            ],
            "type" : "VEC3"
        },
        {
            "bufferView" : 14,
            "componentType" : 5126,
            "count" : 167,
            "type" : "VEC3"
        },
        {
            "bufferView" : 15,
            "componentType" : 5126,
            "count" : 167,
            "type" : "VEC2"
        },
        {
            "bufferView" : 16,
            "componentType" : 5126,
            "count" : 167,
            "type" : "VEC2"
        },
        {
            "bufferView" : 17,
            "componentType" : 5123,
            "count" : 618,
            "type" : "SCALAR"
        },
        {
            "bufferView" : 18,
            "componentType" : 5126,
            "count" : 167,
            "max" : [
                1.6963094472885132,
                3.9577372074127197,
                1.6963154077529907
            ],
            "min" : [
                -1.6963138580322266,
                -0.0007681548595428467,
                -1.696307897567749
            ],
            "type" : "VEC3"
        },
        {
            "bufferView" : 19,
            "componentType" : 5126,
            "count" : 167,
            "type" : "VEC3"
        },
        {
            "bufferView" : 20,
            "componentType" : 5126,
            "count" : 167,
            "type" : "VEC2"
        },
        {
            "bufferView" : 21,
            "componentType" : 5126,
            "count" : 167,
            "type" : "VEC2"
        },
        {
            "bufferView" : 22,
            "componentType" : 5123,
            "count" : 618,
            "type" : "SCALAR"
        }
    ],
    "bufferViews" : [
        {
            "buffer" : 0,
            "byteLength" : 46248,
            "byteOffset" : 0
        },
        {
            "buffer" : 0,
            "byteLength" : 46248,
            "byteOffset" : 46248
        },
        {
            "buffer" : 0,
            "byteLength" : 30832,
            "byteOffset" : 92496
        },
        {
            "buffer" : 0,
            "byteLength" : 30832,
            "byteOffset" : 123328
        },
        {
            "buffer" : 0,
            "byteLength" : 20640,
            "byteOffset" : 154160
        },
        {
            "buffer" : 0,
            "byteLength" : 618870,
            "byteOffset" : 174800
        },
        {
            "buffer" : 0,
            "byteLength" : 790552,
            "byteOffset" : 793672
        },
        {
            "buffer" : 0,
            "byteLength" : 77444,
            "byteOffset" : 1584224
        },
        {
            "buffer" : 0,
            "byteLength" : 8460,
            "byteOffset" : 1661668
        },
        {
            "buffer" : 0,
            "byteLength" : 8460,
            "byteOffset" : 1670128
        },
        {
            "buffer" : 0,
            "byteLength" : 5640,
            "byteOffset" : 1678588
        },
        {
            "buffer" : 0,
            "byteLength" : 5640,
            "byteOffset" : 1684228
        },
        {
            "buffer" : 0,
            "byteLength" : 5820,
            "byteOffset" : 1689868
        },
        {
            "buffer" : 0,
            "byteLength" : 2004,
            "byteOffset" : 1695688
        },
        {
            "buffer" : 0,
            "byteLength" : 2004,
            "byteOffset" : 1697692
        },
        {
            "buffer" : 0,
            "byteLength" : 1336,
            "byteOffset" : 1699696
        },
        {
            "buffer" : 0,
            "byteLength" : 1336,
            "byteOffset" : 1701032
        },
        {
            "buffer" : 0,
            "byteLength" : 1236,
            "byteOffset" : 1702368
        },
        {
            "buffer" : 0,
            "byteLength" : 2004,
            "byteOffset" : 1703604
        },
        {
            "buffer" : 0,
            "byteLength" : 2004,
            "byteOffset" : 1705608
        },
        {
            "buffer" : 0,
            "byteLength" : 1336,
            "byteOffset" : 1707612
        },
        {
            "buffer" : 0,
            "byteLength" : 1336,
            "byteOffset" : 1708948
        },
        {
            "buffer" : 0,
            "byteLength" : 1236,
            "byteOffset" : 1710284
        }
    ],
    "samplers" : [
        {
            "magFilter" : 9729,
            "minFilter" : 9987
        }
    ],
    "buffers" : [
        {
            "byteLength" : 1711520,
            "uri" : "data:application/octet-stream;base64,"
        }
    ]
}
