{
    "asset" : {
        "generator" : "Khronos glTF Blender I/O v1.5.17",
        "version" : "2.0"
    },
    "scene" : 0,
    "scenes" : [
        {
            "name" : "Scene",
            "nodes" : [
                0,
                1,
                2
            ]
        }
    ],
    "nodes" : [
        {
            "name" : "Light",
            "rotation" : [
                0.16907575726509094,
                0.7558803558349609,
                -0.27217137813568115,
                0.570947527885437
            ],
            "translation" : [
                4.076245307922363,
                5.903861999511719,
                -1.0054539442062378
            ]
        },
        {
            "name" : "Camera",
            "rotation" : [
                0.483536034822464,
                0.33687159419059753,
                -0.20870360732078552,
                0.7804827094078064
            ],
            "translation" : [
                7.358891487121582,
                4.958309173583984,
                6.925790786743164
            ]
        },
        {
            "mesh" : 0,
            "name" : "11633_Cooktop_v1_L3",
            "rotation" : [
                0.0001583341509103775,
                0,
                0,
                1
            ]
        }
    ],
    "materials" : [
        {
            "doubleSided" : true,
            "name" : "_11633_Cooktop_v1_L3cooktop_base",
            "pbrMetallicRoughness" : {
                "baseColorFactor" : [
                    0.6118000149726868,
                    0.6118000149726868,
                    0.6118000149726868,
                    1
                ],
                "metallicFactor" : 0,
                "roughnessFactor" : 0.8333333134651184
            }
        },
        {
            "doubleSided" : true,
            "name" : "_11633_Cooktop_v1_L3cooktop_area",
            "pbrMetallicRoughness" : {
                "baseColorTexture" : {
                    "index" : 0
                },
                "metallicFactor" : 0,
                "roughnessFactor" : 0.9057191014289856
            }
        }
    ],
    "meshes" : [
        {
            "name" : "11633_Cooktop_v1_L3",
            "primitives" : [
                {
                    "attributes" : {
                        "POSITION" : 0,
                        "NORMAL" : 1,
                        "TEXCOORD_0" : 2
                    },
                    "indices" : 3,
                    "material" : 0
                },
                {
                    "attributes" : {
                        "POSITION" : 4,
                        "NORMAL" : 5,
                        "TEXCOORD_0" : 6
                    },
                    "indices" : 7,
                    "material" : 1
                }
            ]
        }
    ],
    "textures" : [
        {
            "sampler" : 0,
            "source" : 0
        }
    ],
    "images" : [
        {
            "bufferView" : 8,
            "mimeType" : "image/jpeg",
            "name" : "cooctop_plane"
        }
    ],
    "accessors" : [
        {
            "bufferView" : 0,
            "componentType" : 5126,
            "count" : 4142,
            "max" : [
                11.86359977722168,
                2.902899980545044,
                12.424400329589844
            ],
            "min" : [
                -17.663999557495117,
                -0.005900000222027302,
                -9.241999626159668
            ],
            "type" : "VEC3"
        },
        {
            "bufferView" : 1,
            "componentType" : 5126,
            "count" : 4142,
            "type" : "VEC3"
        },
        {
            "bufferView" : 2,
            "componentType" : 5126,
            "count" : 4142,
            "type" : "VEC2"
        },
        {
            "bufferView" : 3,
            "componentType" : 5123,
            "count" : 21888,
            "type" : "SCALAR"
        },
        {
            "bufferView" : 4,
            "componentType" : 5126,
            "count" : 1581,
            "max" : [
                11.86359977722168,
                3.12719988822937,
                12.424400329589844
            ],
            "min" : [
                -17.663999557495117,
                2.902899980545044,
                -9.241999626159668
            ],
            "type" : "VEC3"
        },
        {
            "bufferView" : 5,
            "componentType" : 5126,
            "count" : 1581,
            "type" : "VEC3"
        },
        {
            "bufferView" : 6,
            "componentType" : 5126,
            "count" : 1581,
            "type" : "VEC2"
        },
        {
            "bufferView" : 7,
            "componentType" : 5123,
            "count" : 9216,
            "type" : "SCALAR"
        }
    ],
    "bufferViews" : [
        {
            "buffer" : 0,
            "byteLength" : 49704,
            "byteOffset" : 0
        },
        {
            "buffer" : 0,
            "byteLength" : 49704,
            "byteOffset" : 49704
        },
        {
            "buffer" : 0,
            "byteLength" : 33136,
            "byteOffset" : 99408
        },
        {
            "buffer" : 0,
            "byteLength" : 43776,
            "byteOffset" : 132544
        },
        {
            "buffer" : 0,
            "byteLength" : 18972,
            "byteOffset" : 176320
        },
        {
            "buffer" : 0,
            "byteLength" : 18972,
            "byteOffset" : 195292
        },
        {
            "buffer" : 0,
            "byteLength" : 12648,
            "byteOffset" : 214264
        },
        {
            "buffer" : 0,
            "byteLength" : 18432,
            "byteOffset" : 226912
        },
        {
            "buffer" : 0,
            "byteLength" : 451447,
            "byteOffset" : 245344
        }
    ],
    "samplers" : [
        {
            "magFilter" : 9729,
            "minFilter" : 9987
        }
    ],
    "buffers" : [
        {
            "byteLength" : 696792,
            "uri" : "data:application/octet-stream;base64,"
        }
    ]
}
