<svg xmlns="http://www.w3.org/2000/svg" xmlns:xlink="http://www.w3.org/1999/xlink" version="1.1" width="512" height="512" x="0" y="0" viewBox="0 0 512 512"><path fill="#3c81f9" d="m56 120h16v24h-16z"/><path fill="#3c81f9" d="m120 120h16v24h-16z"/><path fill="#3c81f9" d="m488 16h-160a8 8 0 0 0 -7.15527 11.57812l15.15527 30.31055v72.82033l-40-45.71486v-60.99414a8.00008 8.00008 0 0 0 -8-8h-64a8.00008 8.00008 0 0 0 -8 8v60.99414l-40 45.71486v-72.82033l15.15527-30.31055a8 8 0 0 0 -7.15527-11.57812h-160a8.00008 8.00008 0 0 0 -8 8v160a8.00008 8.00008 0 0 0 8 8h464a8.00008 8.00008 0 0 0 8-8v-160a8.00008 8.00008 0 0 0 -8-8zm-8 16v16h-131.05566l-8-16zm-128 32h56v24h-56zm72 0h56v24h-56zm-144-32v48h-48v-48zm-52.37036 64h56.74072l42 48h-86.37036v16h96v16h-160v-20.99463zm-123.62964-32h56v24h-56zm-16 24h-56v-24h56zm83.05566-56-8 16h-131.05566v-16zm-139.05566 72h56v72h-56zm72 72v-72h56v72zm248-72h56v72h-56zm72 72v-72h56v72z"/><path fill="#3c81f9" d="m440 120h16v24h-16z"/><path fill="#3c81f9" d="m376 120h16v24h-16z"/><path fill="#3c81f9" d="m208 144h16v16h-16z"/><path fill="#3c81f9" d="m112 384h16v32h-16z"/><path fill="#3c81f9" d="m176 384h16v32h-16z"/><path fill="#3c81f9" d="m312 384h16v32h-16z"/><path fill="#3c81f9" d="m376 384h16v32h-16z"/><path fill="#3c81f9" d="m476 280a20 20 0 0 0 0-40h-12v-8a8.00008 8.00008 0 0 0 -8-8h-56v-16h-16v17.37622a24.01639 24.01639 0 0 0 -8 4.75464 24.01639 24.01639 0 0 0 -8-4.75464v-17.37622h-16v17.37622a24.03824 24.03824 0 0 0 -16 22.62378v40h-16v-16a8.00008 8.00008 0 0 0 -8-8h-112a8.00008 8.00008 0 0 0 -8 8v16h-24.022a39.79015 39.79015 0 0 0 8.022-24v-16a8.00008 8.00008 0 0 0 -8-8h-9.05206l7.70831-11.5625a7.99982 7.99982 0 0 0 -13.3125-8.875l-9.34375 14.01562v-9.57812a8 8 0 0 0 -16 0v16h-32a8.00008 8.00008 0 0 0 -8 8v8h-56a8.00008 8.00008 0 0 0 -8 8v16a23.88388 23.88388 0 0 0 1.37622 8h-1.37622a8.00008 8.00008 0 0 0 -8 8v32a8.00008 8.00008 0 0 0 8 8h24v152a8.00008 8.00008 0 0 0 8 8h400a8.00008 8.00008 0 0 0 8-8v-152h24a8.00008 8.00008 0 0 0 8-8v-32a8.00008 8.00008 0 0 0 -8-8h-24v-8zm-92 8v-16h16v16zm8-48a8.00917 8.00917 0 0 1 8 8v8h-16v-8a8.00917 8.00917 0 0 1 8-8zm-32 0a8.00917 8.00917 0 0 1 8 8v8h-16v-8a8.00917 8.00917 0 0 1 8-8zm-8 32h16v16h-16zm-144 8h96v8h-96zm-104-24h56v8a24.02718 24.02718 0 0 1 -24 24h-8a24.02718 24.02718 0 0 1 -24-24zm-64 24v-8h48v8a8.00917 8.00917 0 0 1 -8 8h-32a8.00917 8.00917 0 0 1 -8-8zm208 56v16h-184v-16zm0 32v112h-88v-112zm16 0h80v112h-80zm-200 0h80v112h-80zm296 112v-112h88v112zm88-128h-184v-16h184zm32-32h-448v-16h448zm-64-32v-40a23.88238 23.88238 0 0 0 -1.37622-8h33.37622v8a8.00008 8.00008 0 0 0 8 8h20a4 4 0 0 1 0 8h-20a8.00008 8.00008 0 0 0 -8 8v16z"/></svg>
