{
    "asset" : {
        "generator" : "Khronos glTF Blender I/O v1.5.17",
        "version" : "2.0"
    },
    "scene" : 0,
    "scenes" : [
        {
            "name" : "Scene",
            "nodes" : [
                7,
                8,
                9
            ]
        }
    ],
    "nodes" : [
        {
            "mesh" : 0,
            "name" : "Mesh_0"
        },
        {
            "mesh" : 1,
            "name" : "Mesh_1"
        },
        {
            "mesh" : 2,
            "name" : "Mesh_2"
        },
        {
            "children" : [
                0,
                1,
                2
            ],
            "name" : "Range_hood_0"
        },
        {
            "children" : [
                3
            ],
            "name" : "GLTF_SceneRootNode",
            "rotation" : [
                0.7071068286895752,
                0,
                0,
                0.7071068286895752
            ]
        },
        {
            "children" : [
                4
            ],
            "name" : "root"
        },
        {
            "children" : [
                5
            ],
            "name" : "RootNode (model correction matrix)"
        },
        {
            "children" : [
                6
            ],
            "name" : "RootNode (gltf orientation matrix)",
            "rotation" : [
                -0.7071068286895752,
                0,
                0,
                0.7071068286895752
            ]
        },
        {
            "name" : "Light",
            "rotation" : [
                0.16907575726509094,
                0.7558803558349609,
                -0.27217137813568115,
                0.570947527885437
            ],
            "translation" : [
                4.076245307922363,
                5.903861999511719,
                -1.0054539442062378
            ]
        },
        {
            "name" : "Camera",
            "rotation" : [
                0.483536034822464,
                0.33687159419059753,
                -0.20870360732078552,
                0.7804827094078064
            ],
            "translation" : [
                7.358891487121582,
                4.958309173583984,
                6.925790786743164
            ]
        }
    ],
    "materials" : [
        {
            "doubleSided" : true,
            "name" : "Hood_metal",
            "pbrMetallicRoughness" : {
                "baseColorFactor" : [
                    0.800000011920929,
                    0.800000011920929,
                    0.800000011920929,
                    1
                ],
                "roughnessFactor" : 0.17272700369358063
            }
        },
        {
            "doubleSided" : true,
            "emissiveFactor" : [
                1,
                0.8544309735298157,
                0.41246798634529114
            ],
            "name" : "Hood_light_2",
            "pbrMetallicRoughness" : {}
        },
        {
            "doubleSided" : true,
            "emissiveFactor" : [
                1,
                1,
                1
            ],
            "name" : "Hood_light",
            "pbrMetallicRoughness" : {}
        }
    ],
    "meshes" : [
        {
            "name" : "Mesh_0",
            "primitives" : [
                {
                    "attributes" : {
                        "POSITION" : 0,
                        "NORMAL" : 1,
                        "TEXCOORD_0" : 2
                    },
                    "indices" : 3,
                    "material" : 0
                }
            ]
        },
        {
            "name" : "Mesh_1",
            "primitives" : [
                {
                    "attributes" : {
                        "POSITION" : 4,
                        "NORMAL" : 5,
                        "TEXCOORD_0" : 6
                    },
                    "indices" : 7,
                    "material" : 1
                }
            ]
        },
        {
            "name" : "Mesh_2",
            "primitives" : [
                {
                    "attributes" : {
                        "POSITION" : 8,
                        "NORMAL" : 9,
                        "TEXCOORD_0" : 10
                    },
                    "indices" : 11,
                    "material" : 2
                }
            ]
        }
    ],
    "accessors" : [
        {
            "bufferView" : 0,
            "componentType" : 5126,
            "count" : 8194,
            "max" : [
                0.38099998235702515,
                0.7619999647140503,
                0.25434672832489014
            ],
            "min" : [
                -0.38099998235702515,
                0,
                -0.25018998980522156
            ],
            "type" : "VEC3"
        },
        {
            "bufferView" : 1,
            "componentType" : 5126,
            "count" : 8194,
            "type" : "VEC3"
        },
        {
            "bufferView" : 2,
            "componentType" : 5126,
            "count" : 8194,
            "type" : "VEC2"
        },
        {
            "bufferView" : 3,
            "componentType" : 5123,
            "count" : 23010,
            "type" : "SCALAR"
        },
        {
            "bufferView" : 4,
            "componentType" : 5126,
            "count" : 27,
            "max" : [
                0.2395772933959961,
                0.006034626625478268,
                -0.1605069786310196
            ],
            "min" : [
                -0.2395772784948349,
                0.006034626625478268,
                -0.2370309829711914
            ],
            "type" : "VEC3"
        },
        {
            "bufferView" : 5,
            "componentType" : 5126,
            "count" : 27,
            "type" : "VEC3"
        },
        {
            "bufferView" : 6,
            "componentType" : 5126,
            "count" : 27,
            "type" : "VEC2"
        },
        {
            "bufferView" : 7,
            "componentType" : 5123,
            "count" : 60,
            "type" : "SCALAR"
        },
        {
            "bufferView" : 8,
            "componentType" : 5126,
            "count" : 468,
            "max" : [
                0.3349490463733673,
                0.024991342797875404,
                0.25434672832489014
            ],
            "min" : [
                0.22385090589523315,
                0.013767656870186329,
                0.2540948987007141
            ],
            "type" : "VEC3"
        },
        {
            "bufferView" : 9,
            "componentType" : 5126,
            "count" : 468,
            "type" : "VEC3"
        },
        {
            "bufferView" : 10,
            "componentType" : 5126,
            "count" : 468,
            "type" : "VEC2"
        },
        {
            "bufferView" : 11,
            "componentType" : 5123,
            "count" : 558,
            "type" : "SCALAR"
        }
    ],
    "bufferViews" : [
        {
            "buffer" : 0,
            "byteLength" : 98328,
            "byteOffset" : 0
        },
        {
            "buffer" : 0,
            "byteLength" : 98328,
            "byteOffset" : 98328
        },
        {
            "buffer" : 0,
            "byteLength" : 65552,
            "byteOffset" : 196656
        },
        {
            "buffer" : 0,
            "byteLength" : 46020,
            "byteOffset" : 262208
        },
        {
            "buffer" : 0,
            "byteLength" : 324,
            "byteOffset" : 308228
        },
        {
            "buffer" : 0,
            "byteLength" : 324,
            "byteOffset" : 308552
        },
        {
            "buffer" : 0,
            "byteLength" : 216,
            "byteOffset" : 308876
        },
        {
            "buffer" : 0,
            "byteLength" : 120,
            "byteOffset" : 309092
        },
        {
            "buffer" : 0,
            "byteLength" : 5616,
            "byteOffset" : 309212
        },
        {
            "buffer" : 0,
            "byteLength" : 5616,
            "byteOffset" : 314828
        },
        {
            "buffer" : 0,
            "byteLength" : 3744,
            "byteOffset" : 320444
        },
        {
            "buffer" : 0,
            "byteLength" : 1116,
            "byteOffset" : 324188
        }
    ],
    "buffers" : [
        {
            "byteLength" : 325304,
            "uri" : "data:application/octet-stream;base64,"
        }
    ]
}
