<svg id="Capa_1" enable-background="new 0 0 512 512" height="512" viewBox="0 0 512 512" width="512" xmlns="http://www.w3.org/2000/svg"><g><path fill="#666" d="m499.778 176.49h-71.054l-3.71-21.991c1.472-.401 2.807-1.236 3.801-2.434 1.425-1.716 2.012-3.977 1.603-6.169l-18.969-101.571c-1.26-6.747-7.156-11.643-14.018-11.643h-32.81c-6.863 0-12.759 4.896-14.019 11.643l-18.969 101.572c-.409 2.192.178 4.453 1.603 6.169.962 1.158 2.241 1.976 3.655 2.393l-4.114 22.032h-29.078l-3.71-21.991c1.472-.401 2.807-1.236 3.801-2.434 1.425-1.716 2.012-3.977 1.603-6.169l-18.97-101.572c-1.26-6.747-7.156-11.643-14.019-11.643h-32.809c-6.863 0-12.759 4.896-14.019 11.643l-18.969 101.572c-.409 2.192.178 4.453 1.603 6.169.962 1.158 2.241 1.976 3.655 2.393l-4.114 22.032h-29.079l-3.71-21.991c1.472-.401 2.807-1.236 3.802-2.434 1.425-1.716 2.012-3.977 1.603-6.169l-18.969-101.572c-1.26-6.747-7.156-11.643-14.019-11.643h-32.809c-6.863 0-12.759 4.896-14.019 11.643l-18.97 101.572c-.409 2.192.178 4.453 1.603 6.169.962 1.158 2.241 1.976 3.655 2.393l-4.114 22.032h-70.504c-6.739-.001-12.221 5.482-12.221 12.221v28.26c0 6.739 5.482 12.221 12.221 12.221h66.051c4.142 0 7.5-3.358 7.5-7.5s-3.358-7.5-7.5-7.5h-63.272v-22.703h482v22.703h-388.727c-4.142 0-7.5 3.358-7.5 7.5s3.358 7.5 7.5 7.5h391.506c6.739 0 12.222-5.482 12.222-12.221v-28.26c-.001-6.739-5.483-12.222-12.223-12.222zm-134.544-128.808h31.582l17.199 92.092h-65.98zm-13.143 107.092h57.757l3.664 21.717h-65.476zm-111.882-107.092h31.582l17.199 92.092h-65.98zm-13.143 107.092h57.757l3.664 21.717h-65.477zm-111.883-107.092h31.582l17.199 92.092h-65.98zm-13.143 107.092h57.757l3.664 21.717h-65.477z"/><path fill="#666" d="m499.778 426.615h-42.092c15.658-12.541 25.714-31.802 25.714-53.377v-11.76c0-2.896-1.645-5.405-4.049-6.654 2.659-7.403 4.049-15.283 4.049-23.188v-11.76c0-2.89-1.637-5.393-4.032-6.646 2.677-7.399 4.032-15.171 4.032-23.196v-11.76c0-4.142-3.358-7.5-7.5-7.5h-198.305c-4.142 0-7.5 3.358-7.5 7.5v11.76c0 8.022 1.359 15.793 4.036 23.193-2.397 1.252-4.036 3.757-4.036 6.648v11.76c0 7.904 1.39 15.783 4.049 23.187-2.404 1.25-4.049 3.758-4.049 6.655v11.76c0 21.575 10.055 40.836 25.714 53.377h-80.508c15.658-12.541 25.714-31.802 25.714-53.377v-11.76c0-2.896-1.645-5.405-4.049-6.654 2.659-7.404 4.049-15.284 4.049-23.188v-11.76c0-2.89-1.637-5.393-4.032-6.646 2.677-7.399 4.032-15.171 4.032-23.196v-11.76c0-4.142-3.358-7.5-7.5-7.5h-198.305c-4.142 0-7.5 3.358-7.5 7.5v11.76c0 8.022 1.359 15.793 4.036 23.193-2.397 1.252-4.036 3.757-4.036 6.648v11.76c0 7.905 1.39 15.784 4.049 23.187-2.404 1.25-4.049 3.758-4.049 6.655v11.76c0 21.575 10.055 40.836 25.714 53.377h-41.203c-6.739.002-12.221 5.484-12.221 12.223v28.26c0 6.739 5.482 12.222 12.221 12.222h303.641c4.142 0 7.5-3.358 7.5-7.5s-3.358-7.5-7.5-7.5h-300.862v-22.704h482v22.704h-151.138c-4.142 0-7.5 3.358-7.5 7.5s3.358 7.5 7.5 7.5h153.916c6.739 0 12.222-5.482 12.222-12.222v-28.26c0-6.739-5.482-12.221-12.222-12.221zm-452.163-72.638c-3.243-7.008-4.905-14.509-4.905-22.342v-4.26h183.305v4.26c0 7.831-1.662 15.333-4.906 22.342zm-4.905-68.204h183.305v4.26c0 7.823-1.665 15.327-4.908 22.342h-173.489c-3.243-7.015-4.908-14.52-4.908-22.342zm53.377 140.842c-29.432 0-53.377-23.945-53.377-53.377v-4.26h183.305v4.26c0 29.432-23.945 53.377-53.377 53.377zm193.913-72.638c-3.243-7.009-4.905-14.51-4.905-22.342v-4.26h183.305v4.26c0 7.832-1.662 15.333-4.906 22.342zm-4.905-68.204h183.305v4.26c0 7.823-1.665 15.327-4.908 22.342h-173.489c-3.243-7.016-4.908-14.521-4.908-22.342zm53.377 140.842c-29.432 0-53.377-23.945-53.377-53.377v-4.26h183.305v4.26c0 29.432-23.945 53.377-53.377 53.377z"/></g></svg>